# xmcd CD database file
#
# Track frame offsets:
#	150
#	13308
#	34099
#	53313
#	75379
#	96429
#	121784
#	143144
#	154126
#	184414
#	200604
#	227828
#
# Disc length: 3461 seconds
#
# Revision: 0
# Processed by: cddbd v1.5.2PL0 Copyright (c) Steve Scherf et al.
# Submitted via: CDex 1.77
#
DISCID=990d830c
DTITLE=Jochen Volpert feat. Carola Thieme - Mister X
DYEAR=2020
DGENRE=Blues
TTITLE0=Mister X
TTITLE1=Hard To Say Goodbye
TTITLE2=Zombie Blues
TTITLE3=Cosmic Flight
TTITLE4=Mountains Walz
TTITLE5=My Wha Wha Life
TTITLE6=Mountains Blues
TTITLE7=Swinging Friday
TTITLE8=If Trouble Was Money
TTITLE9=20th Century Boy
TTITLE10=The River
TTITLE11=Little Wing
EXTD=YEAR: 2020
EXTT0=
EXTT1=
EXTT2=
EXTT3=
EXTT4=
EXTT5=
EXTT6=
EXTT7=
EXTT8=
EXTT9=
EXTT10=
EXTT11=
PLAYORDER=
